<svg width="30" height="30" viewBox="0 0 30 30" fill="none" xmlns="http://www.w3.org/2000/svg">
<path d="M23.9998 5.39999H5.9998C5.28372 5.39999 4.59696 5.68446 4.09062 6.19081C3.58427 6.69715 3.2998 7.38391 3.2998 8.09999V20.1C3.2998 20.4546 3.36964 20.8057 3.50533 21.1332C3.64102 21.4608 3.8399 21.7585 4.09062 22.0092C4.34133 22.2599 4.63898 22.4588 4.96656 22.5945C5.29414 22.7302 5.64524 22.8 5.9998 22.8H21.5278L25.1638 26.436C25.3324 26.6048 25.5612 26.6998 25.7998 26.7C25.9183 26.7009 26.0358 26.6774 26.1448 26.631C26.3091 26.5628 26.4495 26.4475 26.5482 26.2996C26.647 26.1517 26.6998 25.9778 26.6998 25.8V8.09999C26.6998 7.38391 26.4153 6.69715 25.909 6.19081C25.4026 5.68446 24.7159 5.39999 23.9998 5.39999ZM8.6998 11.4H14.3998C14.6385 11.4 14.8674 11.4948 15.0362 11.6636C15.205 11.8324 15.2998 12.0613 15.2998 12.3C15.2998 12.5387 15.205 12.7676 15.0362 12.9364C14.8674 13.1052 14.6385 13.2 14.3998 13.2H8.6998C8.46111 13.2 8.23219 13.1052 8.06341 12.9364C7.89463 12.7676 7.7998 12.5387 7.7998 12.3C7.7998 12.0613 7.89463 11.8324 8.06341 11.6636C8.23219 11.4948 8.46111 11.4 8.6998 11.4ZM21.2998 16.8H8.6998C8.46111 16.8 8.23219 16.7052 8.06341 16.5364C7.89463 16.3676 7.7998 16.1387 7.7998 15.9C7.7998 15.6613 7.89463 15.4324 8.06341 15.2636C8.23219 15.0948 8.46111 15 8.6998 15H21.2998C21.5385 15 21.7674 15.0948 21.9362 15.2636C22.105 15.4324 22.1998 15.6613 22.1998 15.9C22.1998 16.1387 22.105 16.3676 21.9362 16.5364C21.7674 16.7052 21.5385 16.8 21.2998 16.8Z" fill="#3370F5"/>
</svg>
